<?xml version="1.0" encoding="utf-8"?>
<!-- Generator: Adobe Illustrator 14.0.0, SVG Export Plug-In . SVG Version: 6.00 Build 43363)  -->
<!DOCTYPE svg PUBLIC "-//W3C//DTD SVG 1.1//EN" "http://www.w3.org/Graphics/SVG/1.1/DTD/svg11.dtd">
<svg version="1.1" id="Ebene_1" xmlns="http://www.w3.org/2000/svg" xmlns:xlink="http://www.w3.org/1999/xlink" x="0px" y="0px"
	 width="100px" height="100px" viewBox="0 0 100 100" enable-background="new 0 0 100 100" xml:space="preserve">
<circle fill="#B2B2B2" cx="50" cy="50" r="50"/>
<path fill="#FFFFFF" d="M36.796,37.681h26.411c0.006,0.176,0.059,0.319,0.059,0.492v3.555H36.734v-3.555
	C36.734,38.012,36.796,37.849,36.796,37.681 M36.734,50h26.532v-4.047H36.734V50z M55.576,24.991v-4.763h1.035
	c0.943,0,1.707-0.854,1.707-1.903v-1.29c0-1.049-0.764-1.903-1.707-1.903H43.385c-0.949,0-1.709,0.854-1.709,1.903v1.29
	c0,1.049,0.76,1.903,1.709,1.903h1.124v4.763c-2.36,1.178-4.25,2.969-5.659,5.364c-0.584,0.997-0.976,2.049-1.318,3.115h25.093
	C61.605,29.694,59.285,26.846,55.576,24.991 M36.734,73.27c0,0-0.436,5.056,4.222,5.056h17.01c5.843,0,5.3-5.749,5.3-5.749V54.22
	H36.734V73.27z"/>
</svg>
