<?xml version="1.0" encoding="utf-8"?>
<!-- Generator: Adobe Illustrator 14.0.0, SVG Export Plug-In . SVG Version: 6.00 Build 43363)  -->
<!DOCTYPE svg PUBLIC "-//W3C//DTD SVG 1.1//EN" "http://www.w3.org/Graphics/SVG/1.1/DTD/svg11.dtd">
<svg version="1.1" id="Ebene_1" xmlns="http://www.w3.org/2000/svg" xmlns:xlink="http://www.w3.org/1999/xlink" x="0px" y="0px"
	 width="100px" height="100px" viewBox="0 0 100 100" enable-background="new 0 0 100 100" xml:space="preserve">
<circle fill="#B2B2B2" cx="50" cy="50" r="50"/>
<path fill="#FFFFFF" d="M74.749,28.461c-19.286-0.15-23.451-5.191-31.661-5.191c-9.773,0-15.507,2.688-17.967,4.211
	c-1.821,0.976-1.395-0.915-1.395-1.565c0-0.668,1.079-1.312,1.079-1.312c2.261-1.462,8.073-4.393,18.282-4.393
	c8.222,0,12.396,5.049,31.753,5.186c0,0,1.477-0.151,1.477,1.17C76.314,27.884,76.227,28.461,74.749,28.461 M76.314,77.354
	c0-1.318-1.475-1.168-1.475-1.168c-19.357-0.144-23.533-5.195-31.753-5.195c-10.209,0-16.021,2.935-18.282,4.406
	c0,0-1.079,0.639-1.079,1.297c0,0.66-0.427,2.541,1.395,1.56c2.459-1.506,8.193-4.188,17.967-4.198
	c8.211,0,12.375,5.035,31.661,5.195C76.227,79.247,76.314,78.67,76.314,77.354 M76.314,32.837c0-1.32-1.475-1.169-1.475-1.169
	c-19.357-0.143-23.533-5.19-31.753-5.19c-10.209,0-16.021,2.938-18.282,4.396c0,0-1.079,0.644-1.079,1.303v38.171
	c0,0.655-0.427,2.541,1.395,1.562c2.459-1.521,8.193-4.198,17.967-4.198c8.211,0,12.375,5.032,31.661,5.187
	c1.478,0,1.565-0.576,1.565-1.895V32.837L76.314,32.837z"/>
</svg>
