<?xml version="1.0" encoding="utf-8"?>
<!-- Generator: Adobe Illustrator 14.0.0, SVG Export Plug-In . SVG Version: 6.00 Build 43363)  -->
<!DOCTYPE svg PUBLIC "-//W3C//DTD SVG 1.1//EN" "http://www.w3.org/Graphics/SVG/1.1/DTD/svg11.dtd">
<svg version="1.1" id="Ebene_1" xmlns="http://www.w3.org/2000/svg" xmlns:xlink="http://www.w3.org/1999/xlink" x="0px" y="0px"
	 width="100px" height="100px" viewBox="0 0 100 100" enable-background="new 0 0 100 100" xml:space="preserve">
<g>
	<circle fill="#3AA5A3" cx="50" cy="49.999" r="50"/>
	<path fill="#FFFFFF" d="M69.369,25.923l-6.917,6.442H37.547l-6.913-6.442c0,0,3.439-4.807,9.113-5.441
		c5.549-0.612,7.478,2.788,10.256,2.921c2.77-0.133,4.711-3.534,10.252-2.921C65.935,21.117,69.369,25.923,69.369,25.923
		 M73.555,67.28c0,0-1.506,5.764-8.41,5.764H34.864c-6.917,0-8.418-5.764-8.418-5.764c-4.518-19.952,9.233-30.777,9.233-30.777
		H64.32C64.32,36.503,78.071,47.328,73.555,67.28"/>
</g>
</svg>
