<?xml version="1.0" encoding="utf-8"?>
<!-- Generator: Adobe Illustrator 14.0.0, SVG Export Plug-In . SVG Version: 6.00 Build 43363)  -->
<!DOCTYPE svg PUBLIC "-//W3C//DTD SVG 1.1//EN" "http://www.w3.org/Graphics/SVG/1.1/DTD/svg11.dtd">
<svg version="1.1" id="Ebene_1" xmlns="http://www.w3.org/2000/svg" xmlns:xlink="http://www.w3.org/1999/xlink" x="0px" y="0px"
	 width="100px" height="100px" viewBox="-256 446 100 100" enable-background="new -256 446 100 100" xml:space="preserve">
<g>
	<path fill="#ACA5A3" d="M582.979,604.04c0-27.611-22.386-49.998-50.002-49.998s-49.998,22.387-49.998,49.998
		c0,27.616,22.382,50.002,49.998,50.002S582.979,631.656,582.979,604.04z"/>
	<path fill="#FFFFFF" d="M530.039,608.903h-15.293v-15.288h15.293V608.903z M551.204,593.615h-15.288v15.288h15.288V593.615z
		 M519.459,610.811h-15.288v15.288h15.288V610.811z M540.619,610.811h-15.283v15.288h15.283V610.811z M561.789,610.811h-15.293
		v15.288h15.293V610.811z M540.619,576.42h-15.283v15.288h15.283V576.42z"/>
</g>
<g>
	<path fill="#F7A50D" d="M-156,495.998c0-27.611-22.386-49.998-50.002-49.998S-256,468.387-256,495.998
		c0,27.616,22.382,50.002,49.998,50.002S-156,523.614-156,495.998z"/>
	<path fill="#FFFFFF" d="M-191.288,492.658l-9.333,5.998l-11.249-18.619l1.945-8.876l-3.931-6.123l1.713-1.092l-2.304-3.59
		l-18.153,11.638l2.304,3.59l1.705-1.092l3.918,6.114l8.78,1.92l11.28,18.68l-9.372,6.011c0,0,9.139,15.056,15.076,16.678
		c5.946,1.618,12.354,1.135,12.354,1.135s3.115-5.618,4.134-11.693C-181.406,507.265-191.288,492.658-191.288,492.658z
		 M-214.904,479.618l-7.87-1.726l-3.24-5.053l9.601-6.149l3.228,5.058L-214.904,479.618z"/>
</g>
</svg>
