<?xml version="1.0" encoding="utf-8"?>
<!-- Generator: Adobe Illustrator 14.0.0, SVG Export Plug-In . SVG Version: 6.00 Build 43363)  -->
<!DOCTYPE svg PUBLIC "-//W3C//DTD SVG 1.1//EN" "http://www.w3.org/Graphics/SVG/1.1/DTD/svg11.dtd">
<svg version="1.1" id="Ebene_1" xmlns="http://www.w3.org/2000/svg" xmlns:xlink="http://www.w3.org/1999/xlink" x="0px" y="0px"
	 width="100px" height="100px" viewBox="0 0 100 100" enable-background="new 0 0 100 100" xml:space="preserve">
<g>
	<circle fill="#D73A35" cx="344.524" cy="130.674" r="22.632"/>
	<path fill="none" stroke="#FFFFFF" stroke-width="2.0684" stroke-linecap="round" stroke-linejoin="round" d="M340.18,138.293
		c0.105-0.197,0.197-0.402,0.271-0.617l6.445-14.664c0.406-0.656,0.641-1.428,0.641-2.254c0-2.367-1.918-4.287-4.285-4.287
		c-2.035,0-3.738,1.42-4.176,3.324l-6.557,14.66c-0.256,0.549-0.4,1.162-0.4,1.809c0,2.365,1.918,4.285,4.285,4.285
		C338.037,140.549,339.455,139.635,340.18,138.293L340.18,138.293L340.18,138.293z"/>
	<path fill="#FFFFFF" d="M344.127,129.314l-7.754-3.477l-3.854,8.617c-0.256,0.549-0.4,1.162-0.4,1.809
		c0,2.365,1.918,4.285,4.285,4.285c1.633,0,3.051-0.914,3.775-2.256l0,0c0.105-0.197,0.197-0.402,0.271-0.617L344.127,129.314
		L344.127,129.314z"/>
	<g>
		<path fill="#FFFFFF" d="M356.08,127.979c-2.646-2.578-6.863-2.799-9.771-0.389c-2.91,2.406-3.479,6.592-1.441,9.672
			L356.08,127.979z"/>
		<path fill="#FFFFFF" d="M345.875,138.479c2.645,2.576,6.863,2.797,9.771,0.387c2.908-2.408,3.479-6.592,1.439-9.672
			L345.875,138.479z"/>
	</g>
</g>
<g>
	<g>
		<path fill="#6ADE7E" d="M99.973,48.39C99.084,20.788,75.991-0.863,48.391,0.025C20.793,0.915-0.862,24.007,0.026,51.608
			c0.889,27.598,23.986,49.253,51.583,48.364C79.211,99.083,100.862,75.991,99.973,48.39z"/>
	</g>
	<path fill="#FFFFFF" d="M72.514,64.358v1.756c0,5.479-4.482,9.968-9.967,9.968h-25.09c-5.479,0-9.967-4.488-9.967-9.968v-1.756
		c2.028,3.417,5.713,5.73,9.967,5.73h25.09C66.797,70.089,70.481,67.775,72.514,64.358z M62.547,44.648h-25.09
		c-5.479,0-9.967,4.483-9.967,9.963v3.849c0,5.483,4.488,9.972,9.967,9.972h25.09c5.484,0,9.967-4.488,9.967-9.972v-3.849
		C72.514,49.131,68.031,44.648,62.547,44.648 M63.03,21c-3.806,0-6.891,3.081-6.891,6.891c0,3.802,3.085,6.877,6.891,6.877
		c3.802,0,6.882-3.076,6.882-6.877C69.912,24.081,66.832,21,63.03,21z M52.515,22.454c0-2.805-2.273-5.083-5.074-5.083
		c-2.804,0-5.074,2.278-5.074,5.083c0,1.139,0.393,2.183,1.027,3.029c0.678-0.328,1.428-0.531,2.231-0.531
		c1.661,0,3.124,0.803,4.056,2.028C51.354,26.151,52.515,24.443,52.515,22.454z M40.516,30.056c0-0.121,0.031-0.229,0.035-0.35
		c-0.393-0.09-0.798-0.143-1.217-0.143c-3.098,0-5.604,2.507-5.604,5.605s2.506,5.604,5.604,5.604s5.605-2.506,5.605-5.604
		c0-0.026-0.004-0.047-0.004-0.069C42.444,34.755,40.516,32.641,40.516,30.056z M45.625,26.074c-2.197,0-3.987,1.786-3.987,3.982
		c0,2.205,1.79,3.991,3.987,3.991c2.205,0,3.996-1.786,3.996-3.991C49.62,27.86,47.829,26.074,45.625,26.074z"/>
</g>
<g>
	<circle fill="#ACA5A3" cx="604.45" cy="130.674" r="22.632"/>
	<path fill="#FFFFFF" d="M603.119,132.875h-6.922v-6.92h6.922V132.875z M612.699,125.955h-6.92v6.92h6.92V125.955z M598.33,133.738
		h-6.92v6.92h6.92V133.738z M607.908,133.738h-6.918v6.92h6.918V133.738z M617.49,133.738h-6.922v6.92h6.922V133.738z
		 M607.908,118.172h-6.918v6.92h6.918V118.172z"/>
</g>
<g>
	<circle fill="#F7A50D" cx="474.487" cy="130.674" r="22.632"/>
	<path fill="#FFFFFF" d="M481.146,129.162l-4.225,2.715l-5.092-8.428l0.881-4.018l-1.779-2.771l0.775-0.494l-1.043-1.625
		l-8.217,5.268l1.043,1.625l0.771-0.494l1.773,2.768l3.975,0.869l5.105,8.455l-4.242,2.721c0,0,4.137,6.814,6.824,7.549
		c2.691,0.732,5.592,0.514,5.592,0.514s1.41-2.543,1.871-5.293C485.619,135.773,481.146,129.162,481.146,129.162z M470.457,123.26
		l-3.562-0.781l-1.467-2.287l4.346-2.783l1.461,2.289L470.457,123.26z"/>
</g>
</svg>
