<?xml version="1.0" encoding="utf-8"?>
<!-- Generator: Adobe Illustrator 14.0.0, SVG Export Plug-In . SVG Version: 6.00 Build 43363)  -->
<!DOCTYPE svg PUBLIC "-//W3C//DTD SVG 1.1//EN" "http://www.w3.org/Graphics/SVG/1.1/DTD/svg11.dtd">
<svg version="1.1" id="Ebene_1" xmlns="http://www.w3.org/2000/svg" xmlns:xlink="http://www.w3.org/1999/xlink" x="0px" y="0px"
	 width="100px" height="100px" viewBox="0 0 100 100" enable-background="new 0 0 100 100" xml:space="preserve">
<g>
	<path fill="#7C47A3" d="M99.766,49.882C99.766,22.332,77.429,0,49.883,0C22.333,0,0,22.332,0,49.882s22.333,49.882,49.883,49.882
		C77.429,99.765,99.766,77.433,99.766,49.882z"/>
	<path fill="#FFFFFF" d="M74.574,25.401c-19.241-0.15-23.396-5.179-31.587-5.179c-9.75,0-15.471,2.682-17.925,4.202
		c-1.817,0.973-1.391-0.913-1.391-1.562c0-0.667,1.076-1.309,1.076-1.309c2.256-1.459,8.054-4.382,18.239-4.382
		c8.201,0,12.368,5.037,31.678,5.174c0,0,1.472-0.151,1.472,1.167C76.137,24.825,76.047,25.401,74.574,25.401 M76.137,74.178
		c0-1.317-1.472-1.166-1.472-1.166c-19.311-0.143-23.478-5.184-31.678-5.184c-10.185,0-15.983,2.928-18.239,4.396
		c0,0-1.076,0.637-1.076,1.296c0,0.658-0.426,2.535,1.391,1.554c2.454-1.502,8.174-4.18,17.925-4.188
		c8.192,0,12.346,5.023,31.587,5.183C76.047,76.067,76.137,75.491,76.137,74.178 M76.137,29.767c0-1.317-1.472-1.167-1.472-1.167
		c-19.311-0.142-23.478-5.178-31.678-5.178c-10.185,0-15.983,2.931-18.239,4.386c0,0-1.076,0.642-1.076,1.3v38.08
		c0,0.654-0.426,2.535,1.391,1.558c2.454-1.515,8.174-4.188,17.925-4.188c8.192,0,12.346,5.02,31.587,5.175
		c1.473,0,1.562-0.577,1.562-1.89V29.767z"/>
</g>
</svg>
