<?xml version="1.0" encoding="utf-8"?>
<!-- Generator: Adobe Illustrator 14.0.0, SVG Export Plug-In . SVG Version: 6.00 Build 43363)  -->
<!DOCTYPE svg PUBLIC "-//W3C//DTD SVG 1.1//EN" "http://www.w3.org/Graphics/SVG/1.1/DTD/svg11.dtd">
<svg version="1.1" id="Ebene_1" xmlns="http://www.w3.org/2000/svg" xmlns:xlink="http://www.w3.org/1999/xlink" x="0px" y="0px"
	 width="100px" height="100px" viewBox="-256 446 100 100" enable-background="new -256 446 100 100" xml:space="preserve">
<g>
	<path fill="#ACA5A3" d="M-156,495.998c0-27.611-22.386-49.998-50.002-49.998S-256,468.387-256,495.998
		c0,27.616,22.382,50.002,49.998,50.002S-156,523.614-156,495.998z"/>
	<path fill="#FFFFFF" d="M-208.94,500.861h-15.293v-15.288h15.293V500.861z M-187.775,485.573h-15.288v15.288h15.288V485.573z
		 M-219.521,502.769h-15.288v15.288h15.288V502.769z M-198.36,502.769h-15.283v15.288h15.283V502.769z M-177.19,502.769h-15.293
		v15.288h15.293V502.769z M-198.36,468.378h-15.283v15.288h15.283V468.378z"/>
</g>
</svg>
