<?xml version="1.0" encoding="utf-8"?>
<!-- Generator: Adobe Illustrator 14.0.0, SVG Export Plug-In . SVG Version: 6.00 Build 43363)  -->
<!DOCTYPE svg PUBLIC "-//W3C//DTD SVG 1.1//EN" "http://www.w3.org/Graphics/SVG/1.1/DTD/svg11.dtd">
<svg version="1.1" id="Ebene_1" xmlns="http://www.w3.org/2000/svg" xmlns:xlink="http://www.w3.org/1999/xlink" x="0px" y="0px"
	 width="100px" height="100px" viewBox="-256 446 100 100" enable-background="new -256 446 100 100" xml:space="preserve">
<g>
	<path fill="#D73A35" d="M-156,495.966c0-27.611-22.386-49.998-50.002-49.998S-256,468.354-256,495.966
		c0,27.616,22.382,50.002,49.998,50.002S-156,523.582-156,495.966z"/>
	<path fill="none" stroke="#FFFFFF" stroke-width="4.5697" stroke-linecap="round" stroke-linejoin="round" d="M-215.599,512.799
		c0.233-0.436,0.436-0.889,0.6-1.363l14.239-32.397c0.897-1.45,1.416-3.154,1.416-4.979c0-5.229-4.237-9.471-9.468-9.471
		c-4.496,0-8.259,3.137-9.225,7.344l-14.485,32.389c-0.565,1.212-0.885,2.567-0.885,3.995c0,5.226,4.237,9.467,9.467,9.467
		C-220.332,517.782-217.2,515.764-215.599,512.799L-215.599,512.799L-215.599,512.799z"/>
	<path fill="#FFFFFF" d="M-206.878,492.963l-17.131-7.681l-8.513,19.038c-0.565,1.212-0.885,2.567-0.885,3.995
		c0,5.226,4.237,9.467,9.467,9.467c3.607,0,6.74-2.019,8.341-4.983l0,0c0.233-0.436,0.436-0.889,0.6-1.363L-206.878,492.963
		L-206.878,492.963z"/>
	<g>
		<path fill="#FFFFFF" d="M-180.471,490.011c-5.847-5.696-15.162-6.183-21.588-0.858c-6.429,5.316-7.685,14.563-3.185,21.368
			L-180.471,490.011z"/>
		<path fill="#FFFFFF" d="M-203.017,513.209c5.843,5.691,15.163,6.179,21.588,0.854c6.426-5.321,7.686-14.563,3.181-21.368
			L-203.017,513.209z"/>
	</g>
</g>
<g>
	<path fill="#ACA5A3" d="M582.979,604.04c0-27.611-22.386-49.998-50.002-49.998s-49.998,22.387-49.998,49.998
		c0,27.616,22.382,50.002,49.998,50.002S582.979,631.656,582.979,604.04z"/>
	<path fill="#FFFFFF" d="M530.039,608.903h-15.293v-15.288h15.293V608.903z M551.204,593.615h-15.288v15.288h15.288V593.615z
		 M519.459,610.811h-15.288v15.288h15.288V610.811z M540.619,610.811h-15.283v15.288h15.283V610.811z M561.789,610.811h-15.293
		v15.288h15.293V610.811z M540.619,576.42h-15.283v15.288h15.283V576.42z"/>
</g>
<g>
	<path fill="#F7A50D" d="M295.855,604.04c0-27.611-22.386-49.998-50.002-49.998s-49.998,22.387-49.998,49.998
		c0,27.616,22.382,50.002,49.998,50.002S295.855,631.656,295.855,604.04z"/>
	<path fill="#FFFFFF" d="M260.567,600.7l-9.333,5.998l-11.249-18.619l1.945-8.876L238,573.08l1.713-1.092l-2.304-3.59
		l-18.153,11.638l2.304,3.59l1.705-1.092l3.918,6.114l8.78,1.92l11.28,18.68l-9.372,6.011c0,0,9.139,15.056,15.076,16.678
		c5.946,1.618,12.354,1.135,12.354,1.135s3.115-5.618,4.134-11.693C270.449,615.307,260.567,600.7,260.567,600.7z M236.951,587.66
		l-7.87-1.726l-3.24-5.053l9.601-6.149l3.228,5.058L236.951,587.66z"/>
</g>
</svg>
