<?xml version="1.0" encoding="utf-8"?>
<!-- Generator: Adobe Illustrator 14.0.0, SVG Export Plug-In . SVG Version: 6.00 Build 43363)  -->
<!DOCTYPE svg PUBLIC "-//W3C//DTD SVG 1.1//EN" "http://www.w3.org/Graphics/SVG/1.1/DTD/svg11.dtd">
<svg version="1.1" id="Ebene_1" xmlns="http://www.w3.org/2000/svg" xmlns:xlink="http://www.w3.org/1999/xlink" x="0px" y="0px"
	 width="100px" height="100px" viewBox="0 0 100 100" enable-background="new 0 0 100 100" xml:space="preserve">
<g>
	<circle fill="#30A5D7" cx="49.873" cy="49.873" r="49.873"/>
	<path fill="#FFFFFF" d="M36.703,37.585h26.344c0.006,0.176,0.058,0.318,0.058,0.491v3.546H36.641v-3.546
		C36.641,37.915,36.703,37.753,36.703,37.585 M36.641,49.873h26.464v-4.037H36.641V49.873z M55.436,24.928v-4.751h1.032
		c0.94,0,1.702-0.852,1.702-1.898v-1.287c0-1.046-0.762-1.898-1.702-1.898H43.275c-0.947,0-1.705,0.852-1.705,1.898v1.287
		c0,1.046,0.758,1.898,1.705,1.898h1.121v4.751c-2.354,1.175-4.239,2.961-5.645,5.35c-0.583,0.994-0.973,2.044-1.315,3.107h25.029
		C61.45,29.619,59.135,26.778,55.436,24.928 M36.641,73.083c0,0-0.435,5.042,4.211,5.042h16.966c5.829,0,5.287-5.734,5.287-5.734
		V54.082H36.641V73.083z"/>
</g>
</svg>
