<?xml version="1.0" encoding="utf-8"?>
<!-- Generator: Adobe Illustrator 14.0.0, SVG Export Plug-In . SVG Version: 6.00 Build 43363)  -->
<!DOCTYPE svg PUBLIC "-//W3C//DTD SVG 1.1//EN" "http://www.w3.org/Graphics/SVG/1.1/DTD/svg11.dtd">
<svg version="1.1" id="Ebene_1" xmlns="http://www.w3.org/2000/svg" xmlns:xlink="http://www.w3.org/1999/xlink" x="0px" y="0px"
	 width="100px" height="100px" viewBox="0 0 100 100" enable-background="new 0 0 100 100" xml:space="preserve">
<circle fill="#B2B2B2" cx="50" cy="50" r="50"/>
<path fill="#FFFFFF" d="M64.711,46.658l-9.335,5.998l-11.25-18.619l1.946-8.876l-3.931-6.123l1.713-1.092l-2.305-3.59l-18.15,11.638
	l2.304,3.59l1.702-1.092l3.918,6.116l8.78,1.919l11.279,18.68l-9.372,6.011c0,0,9.141,15.054,15.077,16.679
	c5.94,1.617,12.354,1.138,12.354,1.138s3.115-5.617,4.134-11.692C74.592,61.268,64.711,46.658,64.711,46.658z M41.095,33.619
	l-7.869-1.727l-3.24-5.053l9.603-6.146l3.228,5.057L41.095,33.619z"/>
</svg>
