<?xml version="1.0" encoding="utf-8"?>
<!-- Generator: Adobe Illustrator 14.0.0, SVG Export Plug-In . SVG Version: 6.00 Build 43363)  -->
<!DOCTYPE svg PUBLIC "-//W3C//DTD SVG 1.1//EN" "http://www.w3.org/Graphics/SVG/1.1/DTD/svg11.dtd">
<svg version="1.1" id="Ebene_1" xmlns="http://www.w3.org/2000/svg" xmlns:xlink="http://www.w3.org/1999/xlink" x="0px" y="0px"
	 width="100px" height="100px" viewBox="0 0 100 100" enable-background="new 0 0 100 100" xml:space="preserve">
<circle fill="#B2B2B2" cx="50" cy="50" r="50"/>
<path fill="#FFFFFF" d="M72.514,67.357v1.757c0,5.479-4.48,9.968-9.967,9.968h-25.09c-5.479,0-9.967-4.488-9.967-9.968v-1.757
	c2.028,3.418,5.713,5.729,9.967,5.729h25.09C66.797,73.089,70.48,70.775,72.514,67.357z M62.547,47.648h-25.09
	c-5.479,0-9.967,4.483-9.967,9.963v3.849c0,5.483,4.488,9.972,9.967,9.972h25.09c5.484,0,9.967-4.488,9.967-9.972v-3.849
	C72.514,52.131,68.031,47.648,62.547,47.648 M63.029,24c-3.805,0-6.891,3.081-6.891,6.891c0,3.802,3.086,6.877,6.891,6.877
	c3.803,0,6.883-3.076,6.883-6.877C69.912,27.081,66.832,24,63.029,24z M52.516,25.454c0-2.805-2.272-5.083-5.075-5.083
	c-2.804,0-5.074,2.278-5.074,5.083c0,1.139,0.393,2.183,1.027,3.029c0.678-0.328,1.428-0.531,2.231-0.531
	c1.661,0,3.124,0.803,4.056,2.028C51.354,29.151,52.516,27.443,52.516,25.454z M40.516,33.056c0-0.121,0.031-0.229,0.035-0.35
	c-0.393-0.09-0.798-0.143-1.217-0.143c-3.098,0-5.604,2.507-5.604,5.605s2.506,5.604,5.604,5.604s5.605-2.506,5.605-5.604
	c0-0.026-0.004-0.047-0.004-0.069C42.444,37.755,40.516,35.641,40.516,33.056z M45.625,29.074c-2.197,0-3.987,1.786-3.987,3.982
	c0,2.205,1.79,3.991,3.987,3.991c2.205,0,3.996-1.786,3.996-3.991C49.62,30.86,47.829,29.074,45.625,29.074z"/>
</svg>
