<?xml version="1.0" encoding="utf-8"?>
<!-- Generator: Adobe Illustrator 14.0.0, SVG Export Plug-In . SVG Version: 6.00 Build 43363)  -->
<!DOCTYPE svg PUBLIC "-//W3C//DTD SVG 1.1//EN" "http://www.w3.org/Graphics/SVG/1.1/DTD/svg11.dtd">
<svg version="1.1" id="Ebene_1" xmlns="http://www.w3.org/2000/svg" xmlns:xlink="http://www.w3.org/1999/xlink" x="0px" y="0px"
	 width="100px" height="100px" viewBox="0 0 100 100" enable-background="new 0 0 100 100" xml:space="preserve">
<circle fill="#B2B2B2" cx="50" cy="50" r="50"/>
<g>
	<path fill="#FFFFFF" d="M54.168,43.186c-0.379,0.313-0.736,0.642-1.078,0.981l4.412-10.038c1.092-1.824,1.668-3.907,1.668-6.037
		c0-6.482-5.271-11.755-11.752-11.755c-5.432,0-10.085,3.643-11.397,8.889L21.633,57.389c-0.727,1.562-1.096,3.229-1.096,4.959
		c0,6.48,5.272,11.754,11.752,11.754h0.001c4.325-0.002,8.291-2.373,10.354-6.193c0.282-0.527,0.521-1.065,0.712-1.602l4.975-11.316
		c-0.133,3.302,0.73,6.654,2.653,9.562l24.771-20.509C69.91,38.348,60.594,37.861,54.168,43.186z M40.278,26.899
		c0.061-0.136,0.108-0.277,0.142-0.422c0.753-3.28,3.631-5.57,6.998-5.57c3.96,0,7.182,3.224,7.182,7.186
		c0,1.336-0.369,2.643-1.072,3.778c-0.055,0.09-0.104,0.185-0.147,0.282L47.265,46.06l-12.958-5.813L40.278,26.899z"/>
	<path fill="#FFFFFF" d="M77.977,46.725L53.211,67.24c5.844,5.689,15.162,6.18,21.588,0.854
		C81.223,62.777,82.484,53.531,77.977,46.725z"/>
</g>
</svg>
